<mxfile host="app.diagrams.net" agent="Mozilla/5.0 (Windows NT 10.0; Win64; x64) AppleWebKit/537.36 (KHTML, like Gecko) Chrome/131.0.0.0 Safari/537.36" version="24.8.6">
  <diagram id="C5RBs43oDa-KdzZeNtuy" name="Page-1">
    <mxGraphModel dx="1434" dy="738" grid="1" gridSize="10" guides="1" tooltips="1" connect="1" arrows="1" fold="1" page="1" pageScale="1" pageWidth="827" pageHeight="1169" math="0" shadow="0">
      <root>
        <mxCell id="WIyWlLk6GJQsqaUBKTNV-0" />
        <mxCell id="WIyWlLk6GJQsqaUBKTNV-1" parent="WIyWlLk6GJQsqaUBKTNV-0" />
        <mxCell id="WEuYQEnH9k7Cd7DRbl2k-2" value="" style="edgeStyle=orthogonalEdgeStyle;rounded=0;orthogonalLoop=1;jettySize=auto;html=1;endArrow=none;endFill=0;" edge="1" parent="WIyWlLk6GJQsqaUBKTNV-1" source="WEuYQEnH9k7Cd7DRbl2k-0" target="WEuYQEnH9k7Cd7DRbl2k-1">
          <mxGeometry relative="1" as="geometry" />
        </mxCell>
        <mxCell id="WEuYQEnH9k7Cd7DRbl2k-0" value="Cliente" style="rounded=0;whiteSpace=wrap;html=1;" vertex="1" parent="WIyWlLk6GJQsqaUBKTNV-1">
          <mxGeometry x="40" y="125" width="120" height="40" as="geometry" />
        </mxCell>
        <mxCell id="WEuYQEnH9k7Cd7DRbl2k-5" value="" style="edgeStyle=orthogonalEdgeStyle;rounded=0;orthogonalLoop=1;jettySize=auto;html=1;endArrow=none;endFill=0;" edge="1" parent="WIyWlLk6GJQsqaUBKTNV-1" source="WEuYQEnH9k7Cd7DRbl2k-1" target="WEuYQEnH9k7Cd7DRbl2k-4">
          <mxGeometry relative="1" as="geometry" />
        </mxCell>
        <mxCell id="WEuYQEnH9k7Cd7DRbl2k-1" value="Gera" style="rhombus;whiteSpace=wrap;html=1;rounded=0;" vertex="1" parent="WIyWlLk6GJQsqaUBKTNV-1">
          <mxGeometry x="200" y="120" width="80" height="50" as="geometry" />
        </mxCell>
        <mxCell id="WEuYQEnH9k7Cd7DRbl2k-3" value="1,1" style="text;strokeColor=none;align=center;fillColor=none;html=1;verticalAlign=middle;whiteSpace=wrap;rounded=0;" vertex="1" parent="WIyWlLk6GJQsqaUBKTNV-1">
          <mxGeometry x="160" y="125" width="30" height="30" as="geometry" />
        </mxCell>
        <mxCell id="WEuYQEnH9k7Cd7DRbl2k-8" value="" style="edgeStyle=orthogonalEdgeStyle;rounded=0;orthogonalLoop=1;jettySize=auto;html=1;endArrow=none;endFill=0;" edge="1" parent="WIyWlLk6GJQsqaUBKTNV-1" source="WEuYQEnH9k7Cd7DRbl2k-4" target="WEuYQEnH9k7Cd7DRbl2k-7">
          <mxGeometry relative="1" as="geometry" />
        </mxCell>
        <mxCell id="WEuYQEnH9k7Cd7DRbl2k-14" value="" style="edgeStyle=orthogonalEdgeStyle;rounded=0;orthogonalLoop=1;jettySize=auto;html=1;endArrow=none;endFill=0;" edge="1" parent="WIyWlLk6GJQsqaUBKTNV-1" source="WEuYQEnH9k7Cd7DRbl2k-4" target="WEuYQEnH9k7Cd7DRbl2k-13">
          <mxGeometry relative="1" as="geometry" />
        </mxCell>
        <mxCell id="WEuYQEnH9k7Cd7DRbl2k-4" value="Pedido" style="whiteSpace=wrap;html=1;rounded=0;" vertex="1" parent="WIyWlLk6GJQsqaUBKTNV-1">
          <mxGeometry x="320" y="125" width="120" height="40" as="geometry" />
        </mxCell>
        <mxCell id="WEuYQEnH9k7Cd7DRbl2k-6" value="0, N" style="text;strokeColor=none;align=center;fillColor=none;html=1;verticalAlign=middle;whiteSpace=wrap;rounded=0;" vertex="1" parent="WIyWlLk6GJQsqaUBKTNV-1">
          <mxGeometry x="290" y="120" width="30" height="30" as="geometry" />
        </mxCell>
        <mxCell id="WEuYQEnH9k7Cd7DRbl2k-10" value="" style="edgeStyle=orthogonalEdgeStyle;rounded=0;orthogonalLoop=1;jettySize=auto;html=1;endArrow=none;endFill=0;" edge="1" parent="WIyWlLk6GJQsqaUBKTNV-1" source="WEuYQEnH9k7Cd7DRbl2k-7" target="WEuYQEnH9k7Cd7DRbl2k-9">
          <mxGeometry relative="1" as="geometry" />
        </mxCell>
        <mxCell id="WEuYQEnH9k7Cd7DRbl2k-7" value="Possui" style="rhombus;whiteSpace=wrap;html=1;rounded=0;" vertex="1" parent="WIyWlLk6GJQsqaUBKTNV-1">
          <mxGeometry x="340" y="200" width="80" height="40" as="geometry" />
        </mxCell>
        <mxCell id="WEuYQEnH9k7Cd7DRbl2k-9" value="Responsável" style="whiteSpace=wrap;html=1;rounded=0;" vertex="1" parent="WIyWlLk6GJQsqaUBKTNV-1">
          <mxGeometry x="320" y="280" width="120" height="40" as="geometry" />
        </mxCell>
        <mxCell id="WEuYQEnH9k7Cd7DRbl2k-11" value="0, N" style="text;strokeColor=none;align=center;fillColor=none;html=1;verticalAlign=middle;whiteSpace=wrap;rounded=0;" vertex="1" parent="WIyWlLk6GJQsqaUBKTNV-1">
          <mxGeometry x="350" y="165" width="30" height="30" as="geometry" />
        </mxCell>
        <mxCell id="WEuYQEnH9k7Cd7DRbl2k-12" value="1, N" style="text;strokeColor=none;align=center;fillColor=none;html=1;verticalAlign=middle;whiteSpace=wrap;rounded=0;" vertex="1" parent="WIyWlLk6GJQsqaUBKTNV-1">
          <mxGeometry x="350" y="250" width="30" height="30" as="geometry" />
        </mxCell>
        <mxCell id="WEuYQEnH9k7Cd7DRbl2k-17" value="" style="edgeStyle=orthogonalEdgeStyle;rounded=0;orthogonalLoop=1;jettySize=auto;html=1;endArrow=none;endFill=0;" edge="1" parent="WIyWlLk6GJQsqaUBKTNV-1" source="WEuYQEnH9k7Cd7DRbl2k-13" target="WEuYQEnH9k7Cd7DRbl2k-16">
          <mxGeometry relative="1" as="geometry" />
        </mxCell>
        <mxCell id="WEuYQEnH9k7Cd7DRbl2k-13" value="Executa" style="rhombus;whiteSpace=wrap;html=1;rounded=0;" vertex="1" parent="WIyWlLk6GJQsqaUBKTNV-1">
          <mxGeometry x="500" y="117.5" width="80" height="55" as="geometry" />
        </mxCell>
        <mxCell id="WEuYQEnH9k7Cd7DRbl2k-15" value="1, 1" style="text;strokeColor=none;align=center;fillColor=none;html=1;verticalAlign=middle;whiteSpace=wrap;rounded=0;" vertex="1" parent="WIyWlLk6GJQsqaUBKTNV-1">
          <mxGeometry x="440" y="120" width="30" height="30" as="geometry" />
        </mxCell>
        <mxCell id="WEuYQEnH9k7Cd7DRbl2k-16" value="Ordem de serviço" style="whiteSpace=wrap;html=1;rounded=0;" vertex="1" parent="WIyWlLk6GJQsqaUBKTNV-1">
          <mxGeometry x="640" y="122.5" width="120" height="45" as="geometry" />
        </mxCell>
        <mxCell id="WEuYQEnH9k7Cd7DRbl2k-19" value="0, N" style="text;strokeColor=none;align=center;fillColor=none;html=1;verticalAlign=middle;whiteSpace=wrap;rounded=0;" vertex="1" parent="WIyWlLk6GJQsqaUBKTNV-1">
          <mxGeometry x="330" y="160" width="30" height="30" as="geometry" />
        </mxCell>
        <mxCell id="WEuYQEnH9k7Cd7DRbl2k-21" value="1, N" style="text;strokeColor=none;align=center;fillColor=none;html=1;verticalAlign=middle;whiteSpace=wrap;rounded=0;" vertex="1" parent="WIyWlLk6GJQsqaUBKTNV-1">
          <mxGeometry x="610" y="117.5" width="30" height="30" as="geometry" />
        </mxCell>
      </root>
    </mxGraphModel>
  </diagram>
</mxfile>
